# xmcd CD database file
#
# Track frame offsets:
#	182
#	30620
#	51570
#	71635
#	96945
#	121662
#
# Disc length: 1982 seconds
#
# Revision: 0
# Processed by: cddbd v1.5.2PL0 Copyright (c) Steve Scherf et al.
# Submitted via: CDex 1.51
#
DISCID=4f07bc06
DTITLE=Billie Holiday - Songs for distingue lovers
DYEAR=1900
DGENRE=Jazz
TTITLE0=Day in day out
TTITLE1=A foggy day
TTITLE2=Stars fell on Alabama
TTITLE3=One for my baby
TTITLE4=Just one of those things
TTITLE5=I didn't know what time it was
EXTD=
EXTT0=
EXTT1=
EXTT2=
EXTT3=
EXTT4=
EXTT5=
PLAYORDER=
